<?xml version="1.0" encoding="utf-8"?>
<!-- Generator: Adobe Illustrator 22.0.1, SVG Export Plug-In . SVG Version: 6.00 Build 0)  -->
<svg version="1.1" id="Layer_1" xmlns="http://www.w3.org/2000/svg" xmlns:xlink="http://www.w3.org/1999/xlink" x="0px" y="0px"
	 viewBox="0 0 100 100" style="enable-background:new 0 0 100 100;" xml:space="preserve">
<style type="text/css">
	.st0{fill:#DADADA;}
	.st1{fill:#878787;}
</style>
<rect x="0.2" class="st0" width="99.5" height="100"/>
<path class="st1" d="M24.8,72.9h4.6V22.5h41.2v50.4h4.6v4.6H24.8V72.9z M40.8,66v9.2h6.9V66H40.8z M52.3,66v9.2h6.9V66H52.3z
	 M38.5,54.6H34v4.6h4.6V54.6z M56.9,54.6h-4.6v4.6h4.6V54.6z M47.7,54.6h-4.6v4.6h4.6V54.6z M66,54.6h-4.6v4.6H66V54.6z M38.5,45.4
	H34V50h4.6V45.4z M56.9,45.4h-4.6V50h4.6V45.4z M47.7,45.4h-4.6V50h4.6V45.4z M66,45.4h-4.6V50H66V45.4z M38.5,36.3H34v4.6h4.6V36.3
	z M56.9,36.3h-4.6v4.6h4.6V36.3z M47.7,36.3h-4.6v4.6h4.6V36.3z M66,36.3h-4.6v4.6H66V36.3z M38.5,27.1H34v4.6h4.6V27.1z M56.9,27.1
	h-4.6v4.6h4.6V27.1z M47.7,27.1h-4.6v4.6h4.6V27.1z M66,27.1h-4.6v4.6H66V27.1z"/>
</svg>
